<?xml version="1.0" standalone="no"?>
<!DOCTYPE svg PUBLIC "-//W3C//DTD SVG 20010904//EN"
 "http://www.w3.org/TR/2001/REC-SVG-20010904/DTD/svg10.dtd">
<svg version="1.0" xmlns="http://www.w3.org/2000/svg"
 width="640.000000pt" height="640.000000pt" viewBox="0 0 640.000000 640.000000"
 preserveAspectRatio="xMidYMid meet">
<metadata>
Created by potrace 1.11, written by Peter Selinger 2001-2013
</metadata>
<g transform="translate(0.000000,640.000000) scale(0.100000,-0.100000)"
fill="#000000" stroke="none">
<path d="M5575 6350 c-28 -27 -56 -50 -62 -50 -7 0 -13 -4 -13 -10 0 -5 3 -10
8 -10 11 0 138 119 127 120 -6 0 -33 -22 -60 -50z"/>
<path d="M0 3155 l0 -3155 414 0 c355 0 417 2 430 15 8 8 19 15 25 15 6 0 11
10 12 23 0 12 3 16 6 9 3 -8 17 1 41 26 21 21 50 44 65 50 15 7 26 16 23 21
-6 9 22 26 37 23 4 -1 7 4 7 11 0 14 52 57 68 57 5 0 15 7 22 15 7 8 21 15 31
15 24 0 25 30 2 31 -15 0 -15 2 2 8 13 5 24 3 31 -7 9 -13 14 -13 35 1 26 17
49 21 89 17 15 -2 4 -6 -25 -10 l-50 -7 48 -1 c34 -2 47 -6 47 -17 0 -11 11
-15 38 -15 20 0 44 -4 52 -10 9 -5 19 -5 28 2 9 8 16 8 24 0 14 -14 95 -16
100 -3 2 5 75 11 163 12 100 1 171 7 190 15 17 7 46 17 65 22 33 9 33 10 8 11
-36 1 -41 39 -5 39 68 2 124 15 142 34 l20 20 -32 -6 c-19 -3 -33 -1 -33 4 0
6 14 10 30 10 17 0 42 7 55 16 13 9 29 13 35 9 6 -4 22 3 35 15 13 12 28 19
34 15 6 -3 11 -2 11 4 0 5 -6 11 -12 14 -7 2 -4 3 7 1 12 -2 30 8 47 26 15 17
34 30 43 30 9 0 14 4 11 8 -3 5 4 16 15 26 34 29 13 30 -45 3 -181 -86 -409
-137 -614 -137 -127 0 -304 21 -380 46 -42 14 -43 14 -151 -40 -138 -70 -305
-135 -451 -176 -63 -18 -124 -36 -135 -40 -11 -5 -33 -11 -50 -14 -16 -3 -40
-8 -52 -12 -14 -4 -23 -2 -23 5 0 6 6 11 14 11 8 0 21 6 28 13 31 31 63 46 78
37 24 -15 32 -12 20 10 -9 17 -8 20 12 20 14 0 38 16 61 40 20 22 42 40 47 40
6 0 10 9 10 19 0 12 9 21 24 25 14 3 32 13 40 22 9 8 16 11 16 5 0 -8 7 -7 20
1 11 7 20 21 20 31 0 11 9 21 20 24 11 3 20 14 20 24 0 12 5 16 15 13 9 -4 15
0 15 9 0 9 10 23 23 32 17 12 19 17 8 24 -11 7 -11 9 0 13 7 2 -22 30 -67 63
-105 77 -296 271 -365 370 -120 172 -195 345 -241 552 -29 128 -31 411 -5 543
18 94 56 219 81 265 9 17 16 34 16 38 0 13 82 152 92 155 4 2 6 8 2 13 -3 5 2
12 10 15 9 3 16 10 16 15 0 38 182 260 290 354 44 38 166 125 176 125 4 0 28
13 53 28 66 41 211 98 320 127 247 65 571 56 801 -22 46 -15 56 -23 61 -48 33
-146 47 -191 78 -265 65 -151 158 -268 293 -370 129 -98 281 -163 431 -185 51
-8 60 -17 76 -81 5 -22 19 -73 30 -114 16 -58 48 -275 51 -345 1 -5 7 5 16 24
8 19 23 41 34 48 11 8 20 21 20 29 0 15 50 97 63 102 4 2 7 12 7 22 0 10 4 21
9 25 5 3 21 30 35 60 14 30 29 55 33 55 15 0 76 154 65 165 -4 5 1 5 10 2 11
-4 19 0 23 12 5 17 72 71 87 71 4 0 17 9 30 20 12 11 54 44 91 74 37 31 67 59
67 63 0 4 15 29 35 55 19 26 35 50 35 53 0 2 16 25 35 51 19 25 35 52 35 59 0
7 4 15 8 17 4 2 23 27 42 56 18 28 37 52 42 52 4 0 8 6 8 14 0 8 11 28 25 44
14 17 25 35 25 41 0 7 6 22 14 34 34 54 54 259 36 357 -33 171 -54 231 -131
367 -71 124 -215 262 -355 339 -184 100 -353 130 -609 109 -163 -14 -187 -13
-193 7 -2 10 -8 18 -12 18 -4 0 -12 12 -18 26 -7 14 -37 56 -67 94 -30 38 -60
80 -67 94 -6 14 -15 26 -19 26 -4 0 -16 16 -25 35 -9 19 -20 35 -25 35 -5 0
-9 3 -8 8 3 20 -16 53 -38 67 -14 9 -22 19 -20 22 3 2 -2 13 -11 22 -24 25
-52 61 -52 65 0 15 -225 319 -285 385 -120 132 -177 191 -240 252 -90 86 -193
177 -225 198 -14 8 -27 18 -30 21 -3 3 -23 19 -45 36 -153 117 -379 248 -565
330 -58 25 -123 53 -145 63 -22 10 -97 37 -166 59 -233 76 -473 124 -736 146
l-63 6 0 -3155z m1793 -2742 c-7 -2 -19 -2 -25 0 -7 3 -2 5 12 5 14 0 19 -2
13 -5z m-447 -58 c-8 -8 -17 -15 -20 -15 -3 0 -6 7 -6 15 0 9 9 15 21 15 18 0
19 -2 5 -15z m644 -11 c0 -8 -7 -14 -15 -14 -15 0 -21 21 -9 33 10 9 24 -2 24
-19z m-83 0 c-3 -3 -12 -4 -19 -1 -8 3 -5 6 6 6 11 1 17 -2 13 -5z m-397 -33
c0 -17 -20 -23 -35 -11 -8 6 -19 9 -25 5 -5 -3 -10 -1 -10 4 0 6 16 11 35 11
19 0 35 -4 35 -9z"/>
<path d="M5464 6256 c-3 -9 -12 -16 -19 -16 -7 0 -15 -7 -19 -15 -8 -21 1 -19
31 10 15 13 24 27 20 31 -3 4 -9 -1 -13 -10z"/>
<path d="M5368 6181 c-6 -11 -19 -17 -27 -14 -13 4 -14 3 -2 -5 10 -7 21 -6
37 6 25 18 31 32 14 32 -5 0 -15 -9 -22 -19z"/>
<path d="M5256 6115 c-53 -37 -54 -42 -9 -23 15 6 30 11 33 11 3 -1 13 10 23
23 25 33 10 30 -47 -11z"/>
<path d="M5170 6064 c-17 -9 -20 -14 -9 -14 9 0 22 7 29 15 15 18 13 18 -20
-1z"/>
<path d="M5075 6014 c-33 -17 -54 -34 -41 -34 6 0 44 19 75 38 2 1 2 4 0 7 -3
2 -18 -3 -34 -11z"/>
<path d="M4905 5941 c-23 -11 -32 -20 -22 -20 20 -1 87 25 87 33 0 11 -25 5
-65 -13z"/>
<path d="M4980 5950 c0 -5 5 -10 11 -10 5 0 7 5 4 10 -3 6 -8 10 -11 10 -2 0
-4 -4 -4 -10z"/>
<path d="M2610 720 c0 -5 7 -7 15 -4 8 4 15 8 15 10 0 2 -7 4 -15 4 -8 0 -15
-4 -15 -10z"/>
<path d="M2508 663 c-44 -23 -62 -43 -38 -43 5 0 7 -8 4 -17 -4 -10 2 -6 13 9
10 15 32 38 48 53 37 31 33 31 -27 -2z"/>
<path d="M710 310 c-12 -8 -9 -10 13 -10 16 0 26 4 22 10 -8 12 -16 12 -35 0z"/>
<path d="M1558 203 c23 -2 61 -2 85 0 23 2 4 4 -43 4 -47 0 -66 -2 -42 -4z"/>
</g>
</svg>
